<?xml version="1.0" standalone="no"?>
<!DOCTYPE svg PUBLIC "-//W3C//DTD SVG 20010904//EN"
 "http://www.w3.org/TR/2001/REC-SVG-20010904/DTD/svg10.dtd">
<svg version="1.0" xmlns="http://www.w3.org/2000/svg"
 width="263.000000pt" height="234.000000pt" viewBox="0 0 263.000000 234.000000"
 preserveAspectRatio="xMidYMid meet">

<g transform="translate(0.000000,234.000000) scale(0.100000,-0.100000)"
fill="#000000" stroke="none">
<path d="M2393 2061 l-203 -35 0 -373 c0 -205 1 -373 3 -373 1 0 58 7 127 15
69 8 128 15 133 15 4 0 6 -75 5 -167 l-3 -168 -65 -12 c-36 -6 -66 -10 -67 -9
-1 1 -5 43 -9 94 -5 67 -10 92 -20 92 -8 0 -14 11 -14 26 0 23 -3 25 -42 22
l-43 -3 -3 -196 -2 -196 57 10 c32 5 64 14 72 21 7 6 68 20 135 31 l121 20 6
285 c3 157 5 286 5 287 -1 1 -35 -2 -76 -7 -41 -4 -101 -11 -132 -14 l-58 -6
0 244 c0 135 3 247 8 249 4 3 34 8 67 12 l61 6 -8 -113 c-4 -62 -9 -141 -11
-175 -4 -48 -1 -63 8 -63 8 0 16 10 18 23 3 13 5 6 6 -17 1 -38 2 -38 32 -32
17 3 35 6 40 6 5 0 9 12 9 26 0 15 7 32 16 39 14 10 18 45 26 216 5 112 7 215
6 230 l-3 25 -202 -35z"/>
<path d="M2060 1994 c-14 -3 -42 -9 -62 -15 l-38 -10 0 -89 0 -90 49 0 c27 0
56 3 65 6 17 6 23 34 7 34 -7 0 -3 40 14 133 4 20 3 36 -1 36 -5 -1 -20 -3
-34 -5z"/>
<path d="M1682 1890 c-107 -21 -195 -40 -197 -42 -2 -2 -7 -34 -11 -72 -7 -64
-6 -68 12 -63 10 3 46 9 79 12 51 6 58 5 44 -6 -15 -12 -16 -28 -9 -119 4 -58
5 -276 1 -485 -4 -209 -6 -381 -6 -382 0 0 17 -4 38 -8 36 -7 37 -7 37 24 0
35 7 39 25 14 7 -9 19 -14 29 -10 14 6 16 33 17 239 1 128 4 352 8 498 l6 265
49 8 c26 4 55 14 63 22 8 8 18 15 23 15 4 0 8 29 9 65 0 46 -3 65 -12 64 -6 0
-99 -18 -205 -39z"/>
<path d="M1213 1851 l-203 -35 0 -373 c0 -205 1 -373 3 -373 1 0 58 7 127 15
69 8 128 15 133 15 4 0 6 -75 5 -167 l-3 -168 -65 -12 c-36 -6 -66 -10 -67 -9
-1 1 -5 43 -9 94 -5 67 -10 92 -20 92 -8 0 -14 11 -14 26 0 23 -3 25 -42 22
l-43 -3 -3 -196 -2 -196 57 10 c32 5 64 14 72 21 7 6 68 20 135 31 l121 20 6
285 c3 157 5 286 5 287 -1 1 -35 -2 -76 -7 -41 -4 -101 -11 -132 -14 l-58 -6
0 244 c0 135 3 247 8 249 4 3 34 8 67 12 l61 6 -8 -113 c-4 -62 -9 -141 -11
-175 -4 -48 -1 -63 8 -63 8 0 16 10 18 23 3 13 5 6 6 -17 1 -38 2 -38 32 -32
17 3 35 6 40 6 5 0 9 12 9 26 0 15 7 32 16 39 14 10 18 45 26 216 5 112 7 215
6 230 l-3 25 -202 -35z"/>
<path d="M713 1757 l-203 -41 0 -29 c0 -28 1 -29 38 -23 34 5 35 5 9 -5 -21
-8 -27 -17 -25 -33 2 -11 8 -20 13 -20 6 1 31 5 58 8 46 7 47 7 47 -19 0 -21
4 -26 16 -21 9 3 33 9 55 12 l39 7 0 -76 c0 -63 -3 -76 -17 -81 -10 -3 -61
-17 -113 -31 -52 -14 -103 -28 -112 -31 -17 -5 -18 -35 -18 -450 0 -352 3
-445 13 -442 6 2 65 16 130 33 91 23 117 33 117 46 0 14 19 29 36 29 2 0 4
-18 4 -40 0 -38 2 -40 30 -40 27 0 30 3 31 33 1 23 3 26 6 10 4 -23 18 -28 47
-17 14 6 16 71 16 635 0 346 -3 629 -7 628 -5 -1 -99 -20 -210 -42z m47 -675
c0 -121 3 -253 6 -295 l7 -76 -57 -16 c-32 -9 -59 -15 -61 -13 -1 1 -6 134
-10 294 l-7 292 43 15 c85 30 79 44 79 -201z"/>
<path d="M2013 1680 c-15 -14 -23 -16 -27 -7 -3 8 -10 6 -21 -8 -13 -16 -15
-33 -10 -81 9 -85 9 -360 0 -605 l-8 -205 57 -2 c50 -1 58 1 66 21 7 17 9 18
9 5 1 -10 8 -18 16 -18 13 0 15 56 15 440 0 393 -2 440 -16 440 -11 0 -14 6
-9 20 5 17 2 20 -22 20 -16 0 -39 -9 -50 -20z"/>
<path d="M160 1665 c-69 -13 -126 -24 -127 -24 -2 -1 -3 -255 -3 -565 0 -552
0 -564 20 -569 17 -4 19 -11 13 -57 l-6 -52 29 4 c23 2 30 9 35 33 6 25 7 26
8 6 1 -17 5 -21 17 -17 9 3 22 6 30 6 12 0 14 39 14 240 0 218 2 240 18 248 9
5 56 13 105 17 l87 7 -1 79 c-1 78 -2 79 -28 79 -14 -1 -55 -7 -91 -15 -36 -8
-68 -14 -72 -15 -5 0 -8 96 -8 214 0 214 0 214 23 219 12 3 70 13 130 23 l107
17 0 30 c0 28 -1 29 -37 23 -35 -5 -36 -4 -10 5 19 8 27 18 27 35 0 23 -3 24
-37 19 -21 -4 -46 -9 -55 -11 -11 -3 -17 2 -20 18 -4 31 -19 31 -168 3z"/>
</g>
</svg>
